<?xml version="1.0" encoding="utf-8"?>
<!-- Generator: Adobe Illustrator 19.1.0, SVG Export Plug-In . SVG Version: 6.00 Build 0)  -->
<svg version="1.1" id="Layer_1" xmlns="http://www.w3.org/2000/svg" xmlns:xlink="http://www.w3.org/1999/xlink" x="0px" y="0px"
	 viewBox="0 0 487.897 111.282" style="enable-background:new 0 0 487.897 111.282;" xml:space="preserve">
<style type="text/css">
	.st0{fill:#5C6670;}
	.st1{fill:#63A70A;}
</style>
<g>
	<path class="st0" d="M86.182,79.884h1.841v14.601h9.176v1.7H86.182V79.884z"/>
	<path class="st0" d="M104.931,79.884v16.301h-1.839V79.884H104.931z"/>
	<path class="st0" d="M123.751,81.584h-9.876v5.822h8.826v1.677h-8.826v7.102h-1.84V79.884h11.716V81.584z"/>
	<path class="st0" d="M141.427,81.561h-9.941v5.566h8.896v1.676h-8.896v5.707h10.06v1.675h-11.9V79.884h11.782V81.561z"/>
	<path class="st0" d="M147.905,96.185h-0.838v-2.445h2.143v2.098c0,1.887-0.816,2.793-2.586,3.19l-0.279-0.815
		C147.51,97.793,147.999,97.188,147.905,96.185z"/>
	<path class="st0" d="M172.384,96.465c-4.703,0-8.174-3.703-8.174-8.407c0-4.657,3.447-8.453,8.243-8.453
		c2.958,0,4.73,1.048,6.358,2.585l-1.258,1.351c-1.373-1.303-2.91-2.235-5.123-2.235c-3.608,0-6.31,2.91-6.31,6.708
		c0,3.796,2.725,6.753,6.31,6.753c2.234,0,3.703-0.861,5.264-2.353l1.211,1.188C177.204,95.326,175.341,96.465,172.384,96.465z"/>
	<path class="st0" d="M186.29,88.849v7.336h-1.84V79.884h1.84v7.243h9.407v-7.243h1.842v16.301h-1.842v-7.336H186.29z"/>
	<path class="st0" d="M219.666,96.185h-1.98l-1.909-4.307h-8.874l-1.933,4.307h-1.886l7.428-16.418h1.725L219.666,96.185z
		 M211.353,81.91l-3.727,8.313h7.43L211.353,81.91z"/>
	<path class="st0" d="M237.204,79.884h1.794v16.301h-1.468l-10.524-13.365v13.365h-1.794V79.884h1.723l10.27,13.064V79.884z"/>
	<path class="st0" d="M253.509,96.465c-5.123,0-8.289-3.726-8.289-8.407c0-4.493,3.283-8.453,8.174-8.453
		c2.748,0,4.447,0.792,6.078,2.165l-1.188,1.398c-1.258-1.096-2.654-1.863-4.961-1.863c-3.607,0-6.195,3.051-6.195,6.708
		c0,3.912,2.492,6.799,6.451,6.799c1.863,0,3.588-0.723,4.705-1.631V89.13h-4.961v-1.654h6.73v6.498
		C258.54,95.326,256.259,96.465,253.509,96.465z"/>
	<path class="st0" d="M268.535,79.884v16.301h-1.84V79.884H268.535z"/>
	<path class="st0" d="M287.632,79.884h1.793v16.301h-1.467l-10.525-13.365v13.365h-1.795V79.884h1.725l10.27,13.064V79.884z"/>
	<path class="st0" d="M303.939,96.465c-5.125,0-8.291-3.726-8.291-8.407c0-4.493,3.283-8.453,8.174-8.453
		c2.748,0,4.447,0.792,6.078,2.165l-1.186,1.398c-1.26-1.096-2.656-1.863-4.963-1.863c-3.609,0-6.195,3.051-6.195,6.708
		c0,3.912,2.492,6.799,6.451,6.799c1.863,0,3.588-0.723,4.707-1.631V89.13h-4.963v-1.654h6.73v6.498
		C308.968,95.326,306.687,96.465,303.939,96.465z"/>
	<path class="st0" d="M316.449,96.185v-2.445h2.143v2.445H316.449z"/>
</g>
<path class="st0" d="M328.96,34.43h-20.74v18.852c0,1.063-0.35,1.122-1.332,1.122h-4.273c-0.91,0-1.262-0.118-1.262-1.122V13.688
	c0-0.769,0.281-1.005,1.262-1.005h4.273c0.982-0.059,1.332,0.061,1.332,1.005v17.02h20.74V13.864c0-0.886,0-1.24,1.26-1.182h4.275
	c1.051,0,1.33,0,1.33,1.005V53.46c0,0.944-0.42,0.944-1.33,0.944h-4.275c-1.119,0-1.26-0.176-1.26-1.122V34.43z"/>
<path class="st0" d="M404.558,48.2c-0.07,2.658-0.42,4.136-3.014,5.318c-2.662,1.181-6.867,1.597-9.879,1.597
	c-1.893,0-12.262,0-12.262-8.039c0-6.796,7.848-8.745,19.059-11.524v-3.014c0-2.304,0-6.323-5.256-6.323
	c-4.064,0-5.324,2.659-5.885,3.841c-0.492,1.123-1.051,2.542-3.154,2.542c-0.98,0-2.803-0.591-2.803-2.483
	c0-3.546,5.254-7.031,12.754-7.031c10.299,0,10.369,6.323,10.44,9.454V48.2z M398.462,38.331
	c-7.639,2.067-12.682,3.428-12.682,7.978c0,0.473,0,5.613,7.145,5.613c5.467,0,5.537-2.717,5.537-4.313V38.331z"/>
<path class="st0" d="M414.085,10.142c0-0.886,0.49-0.946,1.4-0.946h3.502c1.053,0,1.332,0.06,1.332,0.946v43.199
	c0,0.945-0.42,1.063-1.332,1.063h-3.572c-1.121,0-1.33-0.058-1.33-1.063V10.142z"/>
<path class="st0" d="M437.556,26.393V45.6c0.07,2.481,0.07,3.133,0.84,4.254c0.772,1.242,2.102,2.068,4.205,2.068
	c0.279,0,1.541-0.058,1.82-0.058c1.262,0,1.402,0.827,1.402,1.182c0,1.536-3.854,1.95-5.467,1.95c-3.363,0-5.885-1.123-7.355-2.718
	c-1.613-1.832-1.684-3.782-1.684-5.613V26.393h-3.713c-0.91,0-1.051-0.06-1.051-0.886c0-1.537,0-1.654,1.051-1.715h3.713v-3.545
	c0-1.063,0.213-1.359,1.053-2.068l3.223-2.423c0.701-0.532,0.981-0.65,1.191-0.65c0.701,0,0.771,0.768,0.771,1.479v7.208h6.096
	c0.84,0,1.121,0.061,1.121,0.829c0,1.595,0,1.772-1.051,1.772H437.556z"/>
<path class="st0" d="M473.007,34.076c0-1.241,0-2.837-0.91-4.255c-1.121-1.832-3.504-3.014-6.236-3.014
	c-3.223,0-6.094,1.478-8.479,3.31v22.871c0,1.063-0.211,1.417-1.33,1.417h-3.713c-1.053,0-1.262-0.354-1.262-1.241V10.26
	c0-0.709,0.279-1.004,1.262-1.064h3.713c1.051,0,1.33,0.178,1.33,1.064v16.546c1.262-1.004,4.484-3.722,10.791-3.722
	c10.932,0,11.072,7.859,11.143,10.282v19.621c0,1.063-0.07,1.417-1.332,1.417h-3.504c-1.191-0.058-1.473-0.058-1.473-1.18V34.076z"
	/>
<g>
	<path class="st1" d="M90.599,55.062c-2.72,0-9.436-0.67-13.031-6.871c-1.502-2.438-2.235-5.405-2.235-9.06
		c0-3.821,0.801-7.01,2.381-9.477c1.224-1.972,4.944-6.568,12.954-6.568c11.203,0,13.492,8.388,13.492,10.634
		c0,1.906-1.46,2.109-2.245,2.218l-20.589,2.556c0.697,8.16,5.885,10.907,10.16,11.068c6.994,0.263,11.15-3.158,13.151-7.874
		C104.637,41.688,105.927,55.062,90.599,55.062z M89.916,27.146c-4.68,0-7.698,2.74-8.544,7.733l15.407-2.011
		C96.228,29.529,93.399,27.146,89.916,27.146z"/>
</g>
<g>
	<path class="st0" d="M359.708,55.062c-2.721,0-9.436-0.67-13.031-6.871c-1.502-2.438-2.236-5.405-2.236-9.06
		c0-3.821,0.803-7.01,2.383-9.477c1.223-1.972,4.943-6.568,12.953-6.568c11.203,0,13.492,8.388,13.492,10.634
		c0,1.906-1.459,2.109-2.244,2.218l-20.59,2.556c0.697,8.16,5.885,10.907,10.16,11.068c6.994,0.263,11.15-3.158,13.152-7.874
		C373.747,41.688,375.039,55.062,359.708,55.062z M359.027,27.146c-4.68,0-7.699,2.74-8.545,7.733l15.408-2.011
		C365.337,29.529,362.509,27.146,359.027,27.146z"/>
</g>
<g>
	<path class="st1" d="M112.964,54.38c-0.34,0-0.766-0.038-1.059-0.345c-0.297-0.311-0.336-0.776-0.336-1.148V29.691
		c0-2.242,0.446-3.496,2.97-4.56c4.307-1.898,10.189-2.045,11.89-2.045c13.423,0,13.423,6.431,13.423,9.887v19.857
		c0,0.372,0,1.361-1.148,1.537l-3.811,0.005c-1.072,0-1.893-0.114-1.893-1.542V33.49c0-2.641,0-6.633-7.594-6.633
		c-6.981,0-6.981,3.44-6.981,4.734v21.238c0,1.425-0.862,1.542-1.823,1.542h-3.344C113.167,54.377,113.062,54.38,112.964,54.38z"/>
</g>
<g>
	<path class="st1" d="M163.079,55.062c-10.561,0-16.087-8.014-16.087-15.931c0-7.974,5.502-16.045,16.018-16.045
		c11.348,0,15.756,9.45,15.95,15.803c0.077,4.373-1.585,8.615-4.558,11.642C171.49,53.494,167.575,55.062,163.079,55.062z
		 M162.601,27.089c-5.073,0-8.482,4.516-8.482,11.236c0,8.084,4.757,12.445,9.232,12.445c2.088,0,3.963-0.812,5.424-2.349
		c2.1-2.213,3.139-5.729,2.923-9.903C171.291,30.622,166.835,27.089,162.601,27.089z"/>
</g>
<g>
	<path class="st1" d="M229.904,54.371h-3.63c-0.885,0-1.617-0.112-1.617-1.484V34.124c-0.07-3.153-0.156-7.035-6.23-7.035
		c-2.232,0-3.672,0.682-4.485,1.253c-1.744,1.314-1.744,2.608-1.744,4.4v20.145c0,0.963-0.248,1.484-1.551,1.484h-3.549
		c-0.821,0-1.754,0-1.754-1.427V33.605c0-2.002,0-6.69-6.163-6.69c-6.298,0-6.298,4.083-6.298,5.827v20.145
		c0,1.255-0.59,1.484-1.754,1.484h-3.48c-1,0-1.619-0.249-1.619-1.484V29.749c0-2.042,0.084-3.16,1.89-4.3
		c2.232-1.371,6.882-2.362,11.057-2.362c6.615,0,9.127,2.131,10.263,3.302c1.55-1.346,4.167-3.302,10.826-3.302
		c4.901,0,8.263,1.217,9.99,3.616c1.455,2.021,1.455,4.407,1.455,5.985v20.199c0,1.156-0.61,1.424-1.595,1.482L229.904,54.371z"/>
</g>
<g>
	<path class="st1" d="M245.523,54.371h-3.686c-1.273,0-1.412-0.456-1.412-1.427V25.26c0-0.896,0.107-1.483,1.549-1.483h3.549
		c1.164,0,1.754,0.229,1.754,1.483v27.685C247.277,54.272,246.584,54.371,245.523,54.371z M243.885,19.433
		c-2.675,0-4.075-1.701-4.075-3.382c0-1.994,1.742-3.441,4.144-3.441c2.173,0,3.857,1.361,4.007,3.236
		C247.96,17.602,246.531,19.433,243.885,19.433z"/>
</g>
<path class="st1" d="M269.257,55.062c-8.846,0-14.773-6.31-14.773-15.7c0-9.888,6.125-16.276,15.607-16.276
	c7.803,0,12.06,5.087,12.06,7.699c0,2.06-1.908,2.808-3.189,2.808c-1.312,0-2.478-0.7-3.201-1.917l-0.066-0.112
	c-1.379-2.272-2.682-4.418-6.422-4.418c-4.086,0-8.482,3.246-8.482,10.374c0,8.353,4.777,11.765,9.484,12.047
	c6.992,0.263,11.004-3.162,13.006-7.878C283.281,41.688,284.587,55.062,269.257,55.062z"/>
<g>
	<path class="st1" d="M49.496,18.688c-13.205,3.117-28.234,4.501-28.928,17.489c-1.056,12.102,11.776,17.32,18.878,17.32
		c-4.409,0.917-6.964,2.376-14.721,0.871c-9.861-2.275-14.744-8.369-15.174-15.832C8.71,21.658,22.349,15.653,33.338,13.767
		c13.054-2.24,25.554-4.749,25.916-7.258C59.254,6.509,66.582,15.235,49.496,18.688z"/>
	<path class="st1" d="M8.137,75.012c0-7.914,9.161-11.897,26.528-15.5c27.461-6.375,30.483-28.436,10.74-34.799
		c0,0,6.029-1.871,9.108-1.074c9.824,2.543,12.904,12.018,12.904,17.821c0,13.558-10.908,18.766-28.577,23.839
		c-12.941,3.761-22.419,6.796-22.313,12.942c0.348,6.71,9.442,5.398,9.442,5.398C14.538,87.44,8.137,82.072,8.137,75.012z"/>
	<path class="st1" d="M23.455,105.18c-1.604-9.817,21.165-13.683,30.28-17.473c17.306-6.585,10.033-19.34,1.171-22.582
		c5.515,2.019,8.17,10.738-5.254,16.468C41.53,85.06,14.432,88.011,23.455,105.18z"/>
</g>
</svg>
